<mxfile host="app.diagrams.net" modified="2023-10-20T05:10:15.702Z" agent="Mozilla/5.0 (Macintosh; Intel Mac OS X 10_15_7) AppleWebKit/537.36 (KHTML, like Gecko) Chrome/117.0.0.0 Safari/537.36" version="21.1.5" etag="zIhDsC2oVVFjp8vGwC4h" type="github">
  <diagram name="Page-1" id="hpSfjK8vsMLsIPebyKki">
    <mxGraphModel>
      <root>
        <mxCell id="0" />
        <mxCell id="1" parent="0" />
      </root>
    </mxGraphModel>
  </diagram>
</mxfile>
